<svg width="172" height="171" viewBox="0 0 172 171" fill="none" xmlns="http://www.w3.org/2000/svg">
<g clip-path="url(#clip0_33_12)">
<path d="M31.1367 1.37355e-05H141.195C145.159 -0.00381813 149.084 0.794136 152.747 2.34821C156.41 3.90228 159.738 6.18196 162.541 9.05678C165.344 11.9316 167.567 15.3451 169.082 19.102C170.597 22.8589 171.375 26.8853 171.372 30.9509V139.461C171.375 143.527 170.597 147.553 169.082 151.31C167.567 155.067 165.344 158.481 162.541 161.355C159.738 164.23 156.41 166.51 152.747 168.064C149.084 169.618 145.159 170.416 141.195 170.412H31.1367C27.1727 170.416 23.2469 169.618 19.584 168.064C15.921 166.51 12.5928 164.23 9.7899 161.355C6.98695 158.481 4.76426 155.067 3.24904 151.31C1.73382 147.553 0.955811 143.527 0.959547 139.461V30.9509C0.955811 26.8853 1.73382 22.8589 3.24904 19.102C4.76426 15.3451 6.98695 11.9316 9.7899 9.05678C12.5928 6.18196 15.921 3.90228 19.584 2.34821C23.2469 0.794136 27.1727 -0.00381813 31.1367 1.37355e-05V1.37355e-05Z" fill="#00005B"/>
<path d="M69.4084 101.956H42.9945L37.5981 119.143C37.5378 119.455 37.366 119.732 37.1163 119.921C36.8667 120.109 36.5574 120.195 36.249 120.162H22.9C22.119 120.162 21.906 119.725 22.119 118.851L44.9826 51.6332C45.1956 50.9049 45.4087 50.2495 45.6927 49.3756C45.9784 47.8148 46.1211 46.23 46.1187 44.6419C46.0974 44.4595 46.1441 44.2756 46.2495 44.1271C46.3548 43.9785 46.511 43.8763 46.6867 43.8408H65.0771C65.5741 43.8408 65.9291 44.0593 66.0001 44.4234L91.917 119.07C92.13 119.871 91.917 120.235 91.2069 120.235H76.3669C76.1159 120.26 75.8644 120.193 75.6566 120.047C75.4489 119.9 75.2981 119.683 75.2308 119.434L69.4084 101.956ZM47.1128 87.4634H65.1481C64.722 85.9341 64.154 84.1134 63.5149 82.22C62.8759 80.3265 62.2369 78.1417 61.5978 75.957C60.9588 73.7722 60.2487 71.5146 59.5387 69.257C58.8286 66.9994 58.1896 64.8874 57.6215 62.7755C57.0535 60.6636 56.5564 58.8429 56.0594 57.0951H55.9174C55.2793 60.2692 54.4734 63.4053 53.5032 66.4896C52.4382 69.9853 51.3731 73.6265 50.237 77.2678C49.3139 80.9819 48.1778 84.4047 47.1128 87.4634ZM134.023 95.2558H111.514C111.783 97.554 112.534 99.7652 113.716 101.737C114.97 103.7 116.778 105.224 118.899 106.107C121.769 107.366 124.867 107.986 127.988 107.927C130.467 107.881 132.938 107.613 135.372 107.126C137.537 106.836 139.66 106.273 141.692 105.451C142.047 105.16 142.26 105.306 142.26 106.034V117.176C142.247 117.472 142.199 117.766 142.118 118.05C141.989 118.255 141.82 118.428 141.621 118.56C139.35 119.583 136.965 120.317 134.52 120.745C131.199 121.4 127.819 121.693 124.437 121.619C119.041 121.619 114.497 120.745 110.804 119.07C107.33 117.523 104.263 115.152 101.858 112.151C99.6096 109.346 97.9426 106.1 96.9583 102.611C94.8777 95.3457 94.9767 87.6063 97.2424 80.3993C98.3747 76.753 100.183 73.3652 102.568 70.4222C104.916 67.512 107.846 65.1527 111.159 63.5038C114.497 61.8288 118.473 61.2462 123.017 61.2462C126.803 61.1561 130.562 61.927 134.023 63.5038C136.932 64.7972 139.491 66.7966 141.479 69.3298C143.366 71.8172 144.808 74.628 145.739 77.6319C146.642 80.5022 147.097 83.5007 147.088 86.5167C147.088 88.2645 147.017 89.7938 146.946 91.1775C146.875 92.5612 146.733 93.5808 146.662 94.2362C146.631 94.4885 146.514 94.7215 146.332 94.8945C146.151 95.0675 145.915 95.1696 145.668 95.1829C145.242 95.1829 144.461 95.2558 143.325 95.3286C141.958 95.4878 140.582 95.5608 139.206 95.5471C137.573 95.5471 135.869 95.2558 134.023 95.2558V95.2558ZM111.514 84.6232H126.496C128.343 84.6232 129.692 84.6232 130.544 84.5504C131.127 84.5005 131.689 84.3001 132.177 83.9678V83.2395C132.18 82.3235 132.036 81.4132 131.751 80.545C131.129 78.5523 129.893 76.821 128.227 75.6124C126.562 74.4038 124.559 73.7834 122.52 73.845C120.593 73.7342 118.676 74.1978 117 75.1799C115.324 76.1621 113.962 77.6207 113.076 79.3798C112.248 81.0151 111.719 82.7923 111.514 84.6232V84.6232Z" fill="#9999FF"/>
</g>
<defs>
<clipPath id="clip0_33_12">
<rect width="170.412" height="170.412" fill="white" transform="translate(0.959564)"/>
</clipPath>
</defs>
</svg>
