<svg width="172" height="167" viewBox="0 0 172 167" fill="none" xmlns="http://www.w3.org/2000/svg">
<path d="M8.07628 7.8431H164.288V159.794H8.07628V7.8431ZM0.975861 166.895H171.388V0.742676H0.975861V166.895ZM112.596 59.9611C112.596 59.3931 112.809 59.1088 113.448 59.1088H124.596C125.164 59.1088 125.448 59.3218 125.448 59.9611V115.984C125.448 116.552 125.306 116.836 124.596 116.836H113.59C112.88 116.836 112.667 116.481 112.667 115.913V59.9611H112.596ZM111.815 43.8428C111.815 39.2985 115.01 36.6003 119.058 36.6003C123.389 36.6003 126.3 39.5114 126.3 43.8428C126.3 48.529 123.247 51.0852 118.916 51.0852C114.797 51.0855 111.815 48.529 111.815 43.8428ZM79.8626 83.3218C77.8747 75.4401 73.1884 58.2569 71.413 49.9492H71.271C69.7798 58.2569 66.0167 72.3157 63.0346 83.3218H79.8626ZM60.1232 94.8248L54.5137 116.126C54.3717 116.694 54.1587 116.836 53.4488 116.836H43.011C42.301 116.836 42.1588 116.623 42.301 115.771L62.4664 45.1917C62.8214 43.9137 63.0343 42.7775 63.1763 39.2985C63.1763 38.8015 63.3893 38.5885 63.7443 38.5885H78.6554C79.1524 38.5885 79.3653 38.7305 79.5076 39.2985L102.087 115.913C102.229 116.481 102.087 116.836 101.519 116.836H89.7321C89.1642 116.836 88.8089 116.694 88.6672 116.197L82.8447 94.8248H60.1232Z" fill="#FF7F18"/>
</svg>
