<svg width="172" height="171" viewBox="0 0 172 171" fill="none" xmlns="http://www.w3.org/2000/svg">
<path d="M7.93292 7.28246H164.144V163.129H7.93292V7.28246ZM0.832504 170.412H171.245V0H0.832504V170.412ZM108.618 70.7864C107.553 70.2767 106.133 70.0582 104.429 70.0582C95.2692 70.0582 88.8787 77.2681 88.8787 89.2842C88.8787 102.975 95.4112 108.51 103.577 108.51C105.352 108.51 107.198 108.291 108.618 107.636V70.7864ZM104.855 58.9159C106.346 58.9159 107.198 58.9159 108.618 59.0615V39.6899C108.618 39.1802 108.973 38.9617 109.328 38.9617H120.831C121.399 38.9617 121.541 39.1802 121.541 39.5443V107.636C121.541 109.675 121.541 112.224 121.896 114.992C121.896 115.501 121.754 115.574 121.257 115.866C115.15 118.852 108.689 120.163 102.654 120.163C86.9615 120.163 75.7425 110.186 75.7425 89.867C75.6718 72.4614 86.8905 58.9159 104.855 58.9159ZM63.1752 118.123C63.1752 118.851 63.0332 119.07 62.2519 119.07H51.3172C50.6072 119.07 50.394 118.706 50.394 118.123V39.9084C50.394 39.1802 50.7489 38.9614 51.3172 38.9614H62.3229C62.8909 38.9614 63.1752 39.1799 63.1752 39.8355V118.123Z" fill="#FF408C"/>
</svg>
