<svg width="171" height="167" viewBox="0 0 171 167" fill="none" xmlns="http://www.w3.org/2000/svg">
<path d="M7.14644 7.8431H163.358V159.794H7.14644V7.8431ZM0.0460205 166.895H170.458V0.742676H0.0460205V166.895ZM102.293 70.8958C102.293 70.0436 102.293 67.9847 101.938 64.0081C101.938 63.4401 102.009 63.2981 102.506 63.0851C106.838 61.31 116.992 58.1859 128.494 58.1859C129.062 58.1859 129.346 58.3279 129.346 58.8958V69.1916C129.346 69.7596 129.133 69.9016 128.565 69.9016C124.092 69.6886 117.631 70.2566 115.145 71.3215V116.055C115.145 116.623 114.932 116.907 114.293 116.907H103.145C102.577 116.907 102.293 116.694 102.293 116.055L102.293 70.8958ZM56.8503 77.3573C58.4832 77.4993 59.7614 77.4993 62.6018 77.4993C70.9094 77.4993 78.7201 74.5882 78.7201 63.2984C78.7201 54.2808 73.1815 49.7363 63.6667 49.7363C60.8266 49.7363 58.1285 49.8782 56.8503 49.9492V77.3573ZM44.2823 39.6534C44.2823 39.1565 44.4243 38.8012 44.9923 38.8012C49.5366 38.5882 56.211 38.4462 63.2407 38.4462C82.9091 38.4462 91.5007 49.239 91.5007 63.0851C91.5007 81.1203 78.4358 88.86 62.3888 88.86C59.6904 88.86 58.7674 88.718 56.8503 88.718V115.984C56.8503 116.552 56.6373 116.836 55.998 116.836H45.0633C44.4953 116.836 44.211 116.623 44.211 115.984V39.6534H44.2823Z" fill="#E579FF"/>
</svg>
