<svg width="172" height="167" viewBox="0 0 172 167" fill="none" xmlns="http://www.w3.org/2000/svg">
<path d="M7.80587 7.10042H164.017V159.052H7.80587V7.10042ZM0.705444 166.152H171.118V0H0.705444V166.152ZM115.592 68.165C109.982 68.165 108.065 71.0051 108.065 73.3482C108.065 75.9044 109.343 77.6795 116.87 81.5849C128.018 86.9814 131.497 92.1646 131.497 99.7623C131.497 111.123 122.835 117.23 111.119 117.23C104.941 117.23 99.6155 115.951 96.5624 114.176C96.0655 113.963 95.9945 113.608 95.9945 113.04V102.602C95.9945 101.892 96.3494 101.679 96.8467 102.034C101.32 104.946 106.432 106.224 111.119 106.224C116.728 106.224 119.071 103.881 119.071 100.685C119.071 98.1291 117.438 95.857 110.266 92.1646C100.184 87.3364 95.9945 82.4371 95.9945 74.2715C95.9945 65.1116 103.166 57.5142 115.592 57.5142C121.698 57.5142 125.959 58.4374 128.302 59.5024C128.87 59.8573 129.012 60.4253 129.012 60.9223V70.6498C129.012 71.2178 128.657 71.5731 127.947 71.3598C124.822 69.3722 120.207 68.165 115.592 68.165ZM54.5273 76.6146C56.1605 76.7566 57.4387 76.7566 60.2788 76.7566C68.5867 76.7566 76.3971 73.8455 76.3971 62.5557C76.3971 53.5381 70.7876 48.9936 61.344 48.9936C58.5039 48.9936 55.8055 49.1356 54.5273 49.2066V76.6146ZM41.8886 38.9108C41.8886 38.4138 42.8829 38.0585 43.4505 38.0585C47.9951 37.8455 54.7406 37.7036 61.77 37.7036C81.4384 37.7036 89.1067 48.4963 89.1067 62.2715C89.1067 80.3067 76.0418 88.0463 59.9948 88.0463C57.2967 88.0463 56.3738 87.9043 54.4563 87.9043V115.17C54.4563 115.738 54.2433 116.022 53.6044 116.022H42.7406C42.1726 116.022 41.8884 115.809 41.8884 115.17L41.8886 38.9108Z" fill="#31C5F0"/>
</svg>
